<?xml version="1.0" encoding="UTF-8" standalone="no"?>
<!-- Created with Inkscape (http://www.inkscape.org/) -->

<svg
   width="512"
   height="512"
   viewBox="0 0 512 512"
   version="1.1"
   id="svg1"
   xml:space="preserve"
   xmlns="http://www.w3.org/2000/svg"
   xmlns:svg="http://www.w3.org/2000/svg"><defs
     id="defs1" /><g
     id="layer1"><path
       style="fill:#000000;stroke-width:1.77281"
       d="m 38.117811,458.313 c -5.953788,-1.32148 -11.789971,-7.08415 -13.461562,-13.29196 -0.542125,-2.01329 -0.539947,-29.41994 0.0018,-31.84056 1.284487,-5.73169 5.579993,-10.55235 11.508943,-12.91605 l 2.127366,-0.84811 67.721132,-0.10548 c 49.34382,-0.0767 68.29843,0.004 69.8485,0.29612 6.07099,1.14598 10.81286,5.30484 13.25326,11.62375 l 0.91453,2.36803 0.11843,13.95027 c 0.0721,8.49154 -0.0252,14.87354 -0.24872,16.3098 -1.06668,6.85506 -7.3539,13.32759 -14.17454,14.59231 -2.98705,0.55387 -135.089583,0.42125 -137.609891,-0.1381 z m -1.810584,-91.47175 c -5.294145,-1.86889 -9.641785,-6.43796 -11.332958,-11.91013 -0.660918,-2.13855 -0.707401,-3.27172 -0.692274,-16.87982 0.01771,-15.78146 0.06705,-16.26902 2.047589,-20.18402 1.242133,-2.45527 5.464189,-6.57393 7.888056,-7.69489 4.329543,-2.00224 -3.781499,-1.87825 122.85536,-1.87825 112.56962,0 117.08518,0.0247 119.11733,0.65176 3.39724,1.04825 5.52419,2.30771 7.80874,4.62386 2.619,2.65522 3.86686,4.92242 4.82241,8.76168 0.68799,2.76428 0.72312,3.73771 0.59942,16.6096 -0.12375,12.87888 -0.17604,13.80711 -0.89892,15.97786 -0.84956,2.55104 -2.80929,6.01825 -4.27404,7.5618 -1.56158,1.64556 -5.05486,3.7537 -7.45932,4.50155 -2.22567,0.69225 -3.70268,0.70076 -120.19615,0.69338 l -117.942819,-0.007 z m 0.03776,-90.59317 c -2.638094,-0.85131 -4.121346,-1.65402 -6.099636,-3.30099 -2.239482,-1.86442 -4.372519,-5.14918 -5.338751,-8.22137 -0.749647,-2.3836 -0.793401,-3.11818 -0.783967,-13.16132 0.009,-9.23125 0.09485,-10.91594 0.651754,-12.74904 1.034178,-3.40386 2.304559,-5.54413 4.666855,-7.8625 2.617404,-2.56874 5.760339,-4.21383 9.03111,-4.72711 3.289953,-0.51627 101.254978,-0.50005 104.087158,0.0177 6.44393,1.177 11.70772,6.1728 13.46654,12.78093 0.61528,2.31161 0.72161,22.20583 0.13243,24.76296 -0.93543,4.05959 -4.04708,8.35184 -7.77218,10.72104 -0.87754,0.55812 -2.60954,1.32815 -3.84887,1.71118 -2.1975,0.67912 -3.54256,0.69593 -54.247824,0.67733 -48.796483,-0.0179 -52.114412,-0.0578 -53.944566,-0.64836 z m 162.513283,-0.007 c -5.5003,-1.57413 -9.69641,-6.06252 -11.39041,-12.1838 -0.51722,-1.86896 -0.60965,-3.82683 -0.59818,-12.67011 0.0142,-11.31359 0.16062,-12.41304 2.18135,-16.43042 1.88373,-3.74507 6.05124,-7.08861 10.29311,-8.25805 2.32082,-0.63983 5.81942,-0.66263 101.68058,-0.66263 94.90279,0 99.3708,0.0284 101.40444,0.64381 4.16764,1.26128 8.20067,4.59994 10.09321,8.35548 1.78179,3.53571 1.88003,4.2632 2.04099,15.11085 0.17053,11.49591 -0.0711,13.62526 -2.00707,17.68164 -1.19196,2.49754 -4.65933,6.06297 -7.11414,7.31531 -3.67903,1.87689 2.47554,1.77442 -104.93513,1.74715 -93.8374,-0.0236 -99.59191,-0.0605 -101.64875,-0.6491 z M 35.749095,193.63816 c -4.517744,-1.57261 -7.7317,-4.54931 -10.001459,-9.2631 l -1.280439,-2.6592 v -12.60495 -12.60496 l 1.374065,-2.78057 c 1.577197,-3.19162 4.390687,-6.21776 7.179504,-7.72214 4.024621,-2.17098 -2.499389,-2.03797 99.764794,-2.03421 59.3126,0.002 93.97293,0.12942 94.92243,0.34857 4.64597,1.07218 8.9508,4.62833 11.26089,9.30251 1.14617,2.31909 1.34891,3.13405 1.66224,6.68176 0.46466,5.26141 0.11044,19.38192 -0.54743,21.82167 -1.56279,5.79571 -6.29947,10.41568 -12.32223,12.0187 -1.62726,0.43312 -15.49373,0.50659 -95.50774,0.50613 l -93.604086,-5.3e-4 z m 248.301945,0.62683 c -3.90636,-0.92107 -8.43485,-4.42069 -10.67659,-8.25084 -2.05323,-3.50808 -2.31013,-5.35338 -2.31013,-16.59415 0,-11.09988 0.1893,-12.73053 1.86492,-16.06475 1.30251,-2.59179 5.11018,-6.47598 7.44441,-7.59406 3.97453,-1.90372 -1.88257,-1.79734 99.20048,-1.80186 101.53886,-0.005 95.57259,-0.11381 99.36237,1.81915 2.05842,1.04989 5.99788,5.07691 7.06309,7.22012 1.76294,3.54696 1.87876,4.55213 1.87876,16.30763 0,10.39905 -0.0429,11.12761 -0.79499,13.51915 -1.46147,4.64712 -5.17626,8.5935 -10.05683,10.68378 l -2.26694,0.97089 -94.66779,0.0544 c -56.07557,0.0323 -95.22747,-0.0776 -96.04076,-0.26941 z M 38.467567,112.24837 c -6.552375,-1.80977 -11.720562,-6.85884 -13.611965,-13.298175 -0.792091,-2.69669 -0.833713,-28.945903 -0.05051,-31.888336 1.367577,-5.138157 4.871398,-9.456815 9.529974,-11.746201 1.593024,-0.782865 3.755846,-1.581958 4.80625,-1.775745 1.249845,-0.230584 65.638434,-0.349964 186.321764,-0.345428 195.7678,0.0072 187.23523,-0.06154 194.33965,1.568774 16.86323,3.869745 33.09652,14.944809 43.17754,29.457616 2.47556,3.56387 3.45743,6.02214 3.70632,9.27945 0.3837,5.02148 -1.60849,10.641365 -4.96045,13.993335 -2.08381,2.08381 -5.88777,4.07282 -9.08566,4.75064 -3.29323,0.69807 -411.645714,0.70207 -414.172847,0.004 z"
       id="path1" /></g></svg>
